<svg xmlns="http://www.w3.org/2000/svg" width="100" height="100" viewBox="0 0 100 100">
  <defs>
    <style>
      .cls-1, .cls-2, .cls-3 {
        fill: #e8c35a;
        fill-rule: evenodd;
      }

      .cls-1 {
        opacity: 0.95;
      }

      .cls-2 {
        opacity: 0.75;
      }

      .cls-3 {
        opacity: 0.9;
      }
    </style>
  </defs>
  <path class="cls-1" d="M62,44.893a1.388,1.388,0,0,1,.723,1.826L56.1,62.013a1.388,1.388,0,0,1-1.826.723L38.982,56.117a1.389,1.389,0,0,1-.723-1.826L44.879,39a1.389,1.389,0,0,1,1.826-.723Z"/>
  <path class="cls-2" d="M80.5,26.268a0.327,0.327,0,0,1,0,.462L77.73,29.5a0.327,0.327,0,0,1-.462,0L74.5,26.73a0.327,0.327,0,0,1,0-.462L77.268,23.5a0.327,0.327,0,0,1,.462,0Z"/>
  <path class="cls-2" d="M29.5,26.268a0.327,0.327,0,0,1,0,.462L26.73,29.5a0.327,0.327,0,0,1-.462,0L23.5,26.73a0.327,0.327,0,0,1,0-.462L26.268,23.5a0.327,0.327,0,0,1,.462,0Z"/>
  <path class="cls-2" d="M29.5,76.268a0.327,0.327,0,0,1,0,.462L26.73,79.5a0.327,0.327,0,0,1-.462,0L23.5,76.73a0.327,0.327,0,0,1,0-.462L26.268,73.5a0.327,0.327,0,0,1,.462,0Z"/>
  <path class="cls-2" d="M80.5,76.268a0.327,0.327,0,0,1,0,.462L77.73,79.5a0.327,0.327,0,0,1-.462,0L74.5,76.73a0.327,0.327,0,0,1,0-.462L77.268,73.5a0.327,0.327,0,0,1,.462,0Z"/>
  <path class="cls-3" d="M108.509-1.2a0.98,0.98,0,0,1,0,1.386l-8.318,8.318a0.981,0.981,0,0,1-1.387,0L90.486,0.191a0.98,0.98,0,0,1,0-1.386L98.8-9.514a0.981,0.981,0,0,1,1.387,0Z"/>
  <path class="cls-3" d="M8.509-1.2a0.98,0.98,0,0,1,0,1.386L0.191,8.509a0.98,0.98,0,0,1-1.386,0L-9.514.191a0.98,0.98,0,0,1,0-1.386L-1.2-9.514a0.98,0.98,0,0,1,1.386,0Z"/>
  <path class="cls-3" d="M8.509,98.8a0.981,0.981,0,0,1,0,1.387l-8.318,8.318a0.981,0.981,0,0,1-1.386,0l-8.318-8.318a0.981,0.981,0,0,1,0-1.387L-1.2,90.486a0.98,0.98,0,0,1,1.386,0Z"/>
  <path class="cls-3" d="M108.509,98.8a0.98,0.98,0,0,1,0,1.387l-8.318,8.318a0.981,0.981,0,0,1-1.387,0l-8.318-8.318a0.981,0.981,0,0,1,0-1.387L98.8,90.486a0.981,0.981,0,0,1,1.387,0Z"/>
</svg>
